<svg class="icon" style="width: 1em;height: 1em;vertical-align: middle;fill: currentColor;overflow: hidden;" viewBox="0 0 1024 1024" version="1.1" xmlns="http://www.w3.org/2000/svg" p-id="21188"><path d="M930.17 305.75a224.32 224.32 0 0 0-81.53-81.94l-224-130.31a224.47 224.47 0 0 0-225.28 0l-224 130.31A224 224 0 0 0 64 417.43v252.85c0 59.38 22.81 116.74 64.51 159A222.55 222.55 0 0 0 288 896h64a32 32 0 0 0 32-32V752a128 128 0 0 1 128-128 128 128 0 0 1 128 128v112a32 32 0 0 0 32 32h62.28c59.38 0 116.75-22.81 159-64.52A222.56 222.56 0 0 0 960 672V417.43a224.25 224.25 0 0 0-29.83-111.68z" fill="#222222" p-id="21189"></path></svg>